<!DOCTYPE svg PUBLIC "-//W3C//DTD SVG 1.1//EN" "http://www.w3.org/Graphics/SVG/1.1/DTD/svg11.dtd">
<!-- Uploaded to: SVG Repo, www.svgrepo.com, Transformed by: SVG Repo Mixer Tools -->
<svg height="100px" width="100px" version="1.1" id="Layer_1" xmlns="http://www.w3.org/2000/svg" xmlns:xlink="http://www.w3.org/1999/xlink" viewBox="0 0 355.28 355.28" xml:space="preserve" fill="#000000">
<g id="SVGRepo_bgCarrier" stroke-width="0"/>
<g id="SVGRepo_tracerCarrier" stroke-linecap="round" stroke-linejoin="round"/>
<g id="SVGRepo_iconCarrier"> <g id="XMLID_957_"> <path id="XMLID_2035_" style="fill:#5FD2DB;" d="M133.268,10.079c0.075-7.369,7.808-12.313,14.421-9.06 c3.59,1.766,6.89,4.157,9.76,7.112c6.415,6.605,9.948,15.28,9.948,24.429v31.117h-20.253V32.56c0-5.856-3.417-10.974-8.405-13.391 C135.301,17.503,133.229,13.899,133.268,10.079L133.268,10.079z"/> <path id="XMLID_436_" style="fill:#FF5959;" d="M208.807,230.103V80.368c0-0.11,0-0.221,0-0.331 c0.031-15.776-12.59-28.644-28.366-28.644h-42.387c-15.668,0-28.37,12.702-28.37,28.37v113.759 c0,74.628,48.837,138.396,116.129,160.938c13.852,4.64,25.51-11.401,16.757-23.097 C221.386,303.052,208.807,267.976,208.807,230.103z"/> <path id="XMLID_2036_" style="fill:#5FD2DB;" d="M208.807,95.903c-9.079,0-78.951,0-99.122,0v-17.14 c0-15.668,12.702-28.37,28.37-28.37h42.387c15.79,0,28.393,12.89,28.365,28.679c0,0.099,0,0.197,0,0.296L208.807,95.903 L208.807,95.903z"/> </g> </g>
</svg>